<svg xmlns="http://www.w3.org/2000/svg" width="14.47" height="19" viewBox="0 0 14.47 19">
  <metadata><?xpacket begin="﻿" id="W5M0MpCehiHzreSzNTczkc9d"?>
<x:xmpmeta xmlns:x="adobe:ns:meta/" x:xmptk="Adobe XMP Core 5.6-c140 79.160451, 2017/05/06-01:08:21        ">
   <rdf:RDF xmlns:rdf="http://www.w3.org/1999/02/22-rdf-syntax-ns#">
      <rdf:Description rdf:about=""/>
   </rdf:RDF>
</x:xmpmeta>
                                                                                                    
                                                                                                    
                                                                                                    
                                                                                                    
                                                                                                    
                                                                                                    
                                                                                                    
                                                                                                    
                                                                                                    
                                                                                                    
                                                                                                    
                                                                                                    
                                                                                                    
                                                                                                    
                                                                                                    
                                                                                                    
                                                                                                    
                                                                                                    
                                                                                                    
                                                                                                    
                           
<?xpacket end="w"?></metadata>
<defs>
    <style>
      .cls-1 {
        fill: #8c8c8c;
        fill-rule: evenodd;
      }
    </style>
  </defs>
  <path id="Фигура_4" data-name="Фигура 4" class="cls-1" d="M1095.89,1257.66a0.517,0.517,0,0,1-.38-0.17l-5.85-6.57a0.543,0.543,0,0,1-.08-0.56,0.5,0.5,0,0,1,.46-0.31h2.64a16.788,16.788,0,0,0-2.17-8.23,0.548,0.548,0,0,1-.01-0.59,0.531,0.531,0,0,1,.53-0.22c7.01,1.56,7.9,7.24,8,9.04h2.67a0.5,0.5,0,0,1,.46.31,0.528,0.528,0,0,1-.09.55l-5.81,6.58a0.48,0.48,0,0,1-.37.17h0Zm-4.71-6.57,4.71,5.28,4.66-5.28h-2.01a0.5,0.5,0,0,1-.37-0.17,0.575,0.575,0,0,1-.14-0.38,8.374,8.374,0,0,0-6.08-8.21,19.222,19.222,0,0,1,1.75,8.24,0.521,0.521,0,0,1-.51.52h-2.01Zm11.31,8.91h-13.46a0.52,0.52,0,0,1,0-1.04h13.46A0.52,0.52,0,0,1,1102.49,1260Z" transform="translate(-1088.53 -1241)"/>
</svg>
