<svg xmlns="http://www.w3.org/2000/svg" width="17.81" height="13.41" viewBox="0 0 17.81 13.41">
  <metadata><?xpacket begin="﻿" id="W5M0MpCehiHzreSzNTczkc9d"?>
<x:xmpmeta xmlns:x="adobe:ns:meta/" x:xmptk="Adobe XMP Core 5.6-c140 79.160451, 2017/05/06-01:08:21        ">
   <rdf:RDF xmlns:rdf="http://www.w3.org/1999/02/22-rdf-syntax-ns#">
      <rdf:Description rdf:about=""/>
   </rdf:RDF>
</x:xmpmeta>
                                                                                                    
                                                                                                    
                                                                                                    
                                                                                                    
                                                                                                    
                                                                                                    
                                                                                                    
                                                                                                    
                                                                                                    
                                                                                                    
                                                                                                    
                                                                                                    
                                                                                                    
                                                                                                    
                                                                                                    
                                                                                                    
                                                                                                    
                                                                                                    
                                                                                                    
                                                                                                    
                           
<?xpacket end="w"?></metadata>
<defs>
    <style>
      .cls-1 {
        fill: #8c8c8c;
        fill-rule: evenodd;
      }
    </style>
  </defs>
  <path id="Фигура_6" data-name="Фигура 6" class="cls-1" d="M1065.1,1257.53a0.537,0.537,0,0,1-.21-0.05,0.5,0.5,0,0,1-.31-0.47v-3.22c-7.69-.71-8.54,3.27-8.55,3.31a0.52,0.52,0,0,1-1.03-.11c0.18-8.02,7.54-9.24,9.58-9.42v-2.93a0.531,0.531,0,0,1,.3-0.47,0.54,0.54,0,0,1,.56.07l7.2,5.95a0.532,0.532,0,0,1,.18.39,0.489,0.489,0,0,1-.17.39l-7.2,6.43A0.539,0.539,0,0,1,1065.1,1257.53Zm-2.29-4.86a22.306,22.306,0,0,1,2.35.13,0.528,0.528,0,0,1,.47.52v2.53l5.87-5.25-5.87-4.86v2.32a0.521,0.521,0,0,1-.52.51,12.189,12.189,0,0,0-4.53,1.11,7.485,7.485,0,0,0-4.23,5.02C1057.44,1253.67,1059.38,1252.67,1062.81,1252.67Z" transform="translate(-1055 -1244.12)"/>
</svg>
