<svg xmlns="http://www.w3.org/2000/svg" width="15" height="15" viewBox="0 0 15 15">
  <metadata><?xpacket begin="﻿" id="W5M0MpCehiHzreSzNTczkc9d"?>
<x:xmpmeta xmlns:x="adobe:ns:meta/" x:xmptk="Adobe XMP Core 5.6-c140 79.160451, 2017/05/06-01:08:21        ">
   <rdf:RDF xmlns:rdf="http://www.w3.org/1999/02/22-rdf-syntax-ns#">
      <rdf:Description rdf:about=""/>
   </rdf:RDF>
</x:xmpmeta>
                                                                                                    
                                                                                                    
                                                                                                    
                                                                                                    
                                                                                                    
                                                                                                    
                                                                                                    
                                                                                                    
                                                                                                    
                                                                                                    
                                                                                                    
                                                                                                    
                                                                                                    
                                                                                                    
                                                                                                    
                                                                                                    
                                                                                                    
                                                                                                    
                                                                                                    
                                                                                                    
                           
<?xpacket end="w"?></metadata>
<defs>
    <style>
      .cls-1 {
        fill: #7d7d7d;
        fill-rule: evenodd;
      }
    </style>
  </defs>
  <path id="Speaker" class="cls-1" d="M1454.23,2236.79a0.672,0.672,0,0,1-.5.21,0.733,0.733,0,0,1-.49-0.2,0.7,0.7,0,0,1,0-1,4.684,4.684,0,0,0,0-6.6,0.688,0.688,0,0,1,0-.99,0.7,0.7,0,0,1,.49-0.21,0.672,0.672,0,0,1,.5.21A6.06,6.06,0,0,1,1454.23,2236.79Zm-2.21-1.77a0.709,0.709,0,0,1-.45.16,0.663,0.663,0,0,1-.54-0.25,0.708,0.708,0,0,1,.08-0.99,1.865,1.865,0,0,0,0-2.88,0.708,0.708,0,0,1-.08-0.99,0.694,0.694,0,0,1,.54-0.25,0.721,0.721,0,0,1,.45.17,3.244,3.244,0,0,1,1.17,2.51A3.279,3.279,0,0,1,1452.02,2235.02Zm-3.51,4.98h-0.94l-3.28-3.28h-2.35a0.939,0.939,0,0,1-.94-0.94v-6.56a0.939,0.939,0,0,1,.94-0.94h2.35l3.28-3.28h0.94a0.937,0.937,0,0,1,.93.94v13.13A0.935,0.935,0,0,1,1448.51,2240Zm-0.47-13.48-3.17,3.17h-2.46v5.62h2.46l3.17,3.17v-11.96Z" transform="translate(-1441 -2225)"/>
</svg>
