<svg xmlns="http://www.w3.org/2000/svg" viewBox="0 0 152.11 30.63"><title>Asset 2</title><g id="Layer_2" data-name="Layer 2"><g id="Слой_2" data-name="Слой 2"><rect width="30.63" height="30.63" rx="4.04" ry="4.04" style="fill:#f8e14b"/><path d="M23.53,4.64a.44.44,0,0,0-.31-.09L11.08,6.12a.4.4,0,0,0-.34.39V20.45A4.05,4.05,0,0,0,7.61,19,3.73,3.73,0,0,0,3.7,22.55a3.73,3.73,0,0,0,3.91,3.53,3.74,3.74,0,0,0,3.92-3.53,2.11,2.11,0,0,0,0-.26.24.24,0,0,0,0-.08V10.86L22.88,9.39v7.14a4.09,4.09,0,0,0-3.13-1.41,3.74,3.74,0,0,0-3.92,3.52,3.74,3.74,0,0,0,3.92,3.52,3.74,3.74,0,0,0,3.91-3.47h0V4.94A.43.43,0,0,0,23.53,4.64Z"/><path d="M53.86,20.61V14.4A1.23,1.23,0,0,0,52.51,13a2.37,2.37,0,0,0-1.84,1v6.59H47.42V14.4A1.22,1.22,0,0,0,46.06,13a2.39,2.39,0,0,0-1.81,1v6.59H41V10.41h3.26v1.24a4.52,4.52,0,0,1,3.36-1.5A2.75,2.75,0,0,1,50.5,12,4.4,4.4,0,0,1,54,10.15a2.76,2.76,0,0,1,3.07,3.07v7.39Z" style="fill:#d9d9d9"/><path d="M58.8,15.5a5.57,5.57,0,0,1,11.14,0,5.57,5.57,0,0,1-11.14,0Zm7.8,0A2.25,2.25,0,0,0,64.36,13a2.22,2.22,0,0,0-2.2,2.47A2.24,2.24,0,0,0,64.36,18,2.26,2.26,0,0,0,66.6,15.5Z" style="fill:#d9d9d9"/><path d="M78.55,20.61V14.72A1.47,1.47,0,0,0,76.88,13a2.49,2.49,0,0,0-2,1v6.59H71.64V10.41H74.9v1.24a4.61,4.61,0,0,1,3.53-1.5c2.32,0,3.38,1.35,3.38,3.23v7.23Z" style="fill:#d9d9d9"/><path d="M84.87,20.61V13.24H83.18V10.41h1.69V9.9a3.45,3.45,0,0,1,3.65-3.59,4.12,4.12,0,0,1,2.94,1l-1.2,1.86a1.25,1.25,0,0,0-1-.4A1.06,1.06,0,0,0,88.12,9.9v.51h2.07v2.83H88.12v7.37Z" style="fill:#d9d9d9"/><path d="M90.86,15.5a5.57,5.57,0,0,1,11.14,0,5.57,5.57,0,0,1-11.14,0Zm7.8,0a2.23,2.23,0,1,0-4.44,0,2.23,2.23,0,1,0,4.44,0Z" style="fill:#d9d9d9"/><path d="M110.62,20.61V14.72A1.48,1.48,0,0,0,109,13a2.51,2.51,0,0,0-2,1v6.59h-3.25V10.41H107v1.24a4.63,4.63,0,0,1,3.53-1.5c2.33,0,3.38,1.35,3.38,3.23v7.23Z" style="fill:#d9d9d9"/><path d="M115.9,18.88a2,2,0,1,1,2,2A2,2,0,0,1,115.9,18.88Z" style="fill:#d9d9d9"/><path d="M121.26,15.5a5.57,5.57,0,0,1,11.14,0,5.57,5.57,0,0,1-11.14,0Zm7.8,0a2.23,2.23,0,1,0-4.44,0,2.23,2.23,0,1,0,4.44,0Z" style="fill:#d9d9d9"/><path d="M134.11,20.61V10.41h3.25v1.24a4.46,4.46,0,0,1,3.19-1.52v3.13a3.76,3.76,0,0,0-.8-.09,3.31,3.31,0,0,0-2.39.93v6.51Z" style="fill:#d9d9d9"/><path d="M141.75,23.23l1.42-2.32a4.13,4.13,0,0,0,3.1,1.18,2.3,2.3,0,0,0,2.6-2.34V19a3.82,3.82,0,0,1-3,1.48c-2.49,0-4.5-1.71-4.5-5.15s1.94-5.14,4.5-5.14a3.77,3.77,0,0,1,3,1.46v-1.2h3.24V19.7c0,4.17-3.3,5.05-5.84,5.05A6.73,6.73,0,0,1,141.75,23.23Zm7.12-6.57V13.93a2.59,2.59,0,0,0-1.94-.9,2.09,2.09,0,0,0-2.24,2.26,2.1,2.1,0,0,0,2.24,2.28A2.6,2.6,0,0,0,148.87,16.66Z" style="fill:#d9d9d9"/></g></g></svg>