<?xml version="1.0" encoding="utf-8"?><svg xmlns="http://www.w3.org/2000/svg" xmlns:xlink="http://www.w3.org/1999/xlink"><symbol viewBox="0 0 10 6" id="arrow-down" xmlns="http://www.w3.org/2000/svg"><path data-name="Фигура 13" d="M10 .467a.487.487 0 0 1-.119.323L5.434 5.846a.427.427 0 0 1-.313.148.422.422 0 0 1-.318-.139L.121.805a.5.5 0 0 1 0-.666.419.419 0 0 1 .621 0l4.363 4.706 4.136-4.7a.417.417 0 0 1 .62-.019.482.482 0 0 1 .139.341z" fill-rule="evenodd"/></symbol><symbol viewBox="0 0 14.47 19" id="download-ico" xmlns="http://www.w3.org/2000/svg"><path data-name="Фигура 4" d="M7.36 16.66a.517.517 0 0 1-.38-.17L1.13 9.92a.543.543 0 0 1-.08-.56.5.5 0 0 1 .46-.31h2.64A16.788 16.788 0 0 0 1.98.82a.548.548 0 0 1-.01-.59.531.531 0 0 1 .53-.22c7.01 1.56 7.9 7.24 8 9.04h2.67a.5.5 0 0 1 .46.31.528.528 0 0 1-.09.55l-5.81 6.58a.48.48 0 0 1-.37.17zm-4.71-6.57l4.71 5.28 4.66-5.28h-2.01a.5.5 0 0 1-.37-.17.575.575 0 0 1-.14-.38 8.374 8.374 0 0 0-6.08-8.21 19.222 19.222 0 0 1 1.75 8.24.521.521 0 0 1-.51.52H2.65zM13.96 19H.5a.52.52 0 0 1 0-1.04h13.46a.52.52 0 0 1 0 1.04z" fill-rule="evenodd"/></symbol><symbol viewBox="0 0 7 10" id="pause" xmlns="http://www.w3.org/2000/svg"><path data-name="Фигура 14" d="M5.88 9.99a1.107 1.107 0 0 1-1.117-1.1V1.11a1.117 1.117 0 0 1 2.234 0v7.78a1.107 1.107 0 0 1-1.117 1.1zm-4.756 0a1.107 1.107 0 0 1-1.117-1.1V1.11a1.117 1.117 0 0 1 2.233 0v7.78a1.107 1.107 0 0 1-1.116 1.1z" fill-rule="evenodd"/></symbol><symbol viewBox="0 0 7 10" id="pause_yellow" xmlns="http://www.w3.org/2000/svg"><path data-name="Фигура 14" d="M5.88 9.99a1.107 1.107 0 0 1-1.117-1.1V1.11a1.117 1.117 0 0 1 2.234 0v7.78a1.107 1.107 0 0 1-1.117 1.1zm-4.756 0a1.107 1.107 0 0 1-1.117-1.1V1.11a1.117 1.117 0 0 1 2.233 0v7.78a1.107 1.107 0 0 1-1.116 1.1z" fill-rule="evenodd"/></symbol><symbol viewBox="0 0 19.031 23.75" id="play-btn" xmlns="http://www.w3.org/2000/svg"><path data-name="Фигура 2 копия" d="M18.223 10.347L2.378.208A1.6 1.6 0 0 0-.011 1.737v20.277a1.6 1.6 0 0 0 2.389 1.529l15.845-10.139a1.865 1.865 0 0 0 0-3.057z" fill-rule="evenodd"/></symbol><symbol viewBox="0 0 19.031 23.75" id="play-btn_yellow" xmlns="http://www.w3.org/2000/svg"><path data-name="Фигура 2 копия" d="M18.223 10.347L2.378.208A1.6 1.6 0 0 0-.011 1.737v20.277a1.6 1.6 0 0 0 2.389 1.529l15.845-10.139a1.865 1.865 0 0 0 0-3.057z" fill-rule="evenodd"/></symbol><symbol viewBox="0 0 16.875 9.5" id="player-next" xmlns="http://www.w3.org/2000/svg"><path data-name="Фигура 3" d="M16.372 5.62L9.854 9.39a1 1 0 0 1-1.489-.87V5.27a.96.96 0 0 1-.344.35L1.503 9.39a1 1 0 0 1-1.49-.87V.99a1 1 0 0 1 1.49-.86L8.021 3.9a.96.96 0 0 1 .344.35V.99A1 1 0 0 1 9.854.13l6.518 3.77a.993.993 0 0 1 0 1.72z" fill-rule="evenodd"/></symbol><symbol viewBox="0 0 16.969 9" id="player-prev" xmlns="http://www.w3.org/2000/svg"><path data-name="Фигура 3 копия" d="M15.455 8.88L8.889 5.31a.91.91 0 0 1-.346-.33v3.08a1 1 0 0 1-1.5.82L.477 5.31a.914.914 0 0 1 0-1.63L7.043.11a1 1 0 0 1 1.5.82v3.08a.91.91 0 0 1 .346-.33L15.455.11a1 1 0 0 1 1.5.82v7.13a1 1 0 0 1-1.5.82z" fill-rule="evenodd"/></symbol><symbol viewBox="0 0 16 16" id="search-ico" xmlns="http://www.w3.org/2000/svg"><path d="M.308 14.3a.984.984 0 1 0 1.388 1.392L4.7 12.68a.991.991 0 0 0 .073-.109 7.062 7.062 0 1 0-1.356-1.356 1.071 1.071 0 0 0-.106.072zM9.008 2a4.994 4.994 0 1 1-5 4.994A5 5 0 0 1 9.007 2z" fill-rule="evenodd"/></symbol><symbol viewBox="0 0 17.81 13.41" id="share-ico" xmlns="http://www.w3.org/2000/svg"><path data-name="Фигура 6" d="M10.1 13.41a.537.537 0 0 1-.21-.05.5.5 0 0 1-.31-.47V9.67c-7.69-.71-8.54 3.27-8.55 3.31A.52.52 0 0 1 0 12.87c.18-8.02 7.54-9.24 9.58-9.42V.52a.531.531 0 0 1 .3-.47.54.54 0 0 1 .56.07l7.2 5.95a.532.532 0 0 1 .18.39.489.489 0 0 1-.17.39l-7.2 6.43a.539.539 0 0 1-.35.13zM7.81 8.55a22.306 22.306 0 0 1 2.35.13.528.528 0 0 1 .47.52v2.53l5.87-5.25-5.87-4.86v2.32a.521.521 0 0 1-.52.51 12.189 12.189 0 0 0-4.53 1.11 7.485 7.485 0 0 0-4.23 5.02c1.09-1.03 3.03-2.03 6.46-2.03z" fill-rule="evenodd"/></symbol><symbol viewBox="0 0 15 15" id="volume-ico" xmlns="http://www.w3.org/2000/svg"><path d="M13.23 11.79a.672.672 0 0 1-.5.21.733.733 0 0 1-.49-.2.7.7 0 0 1 0-1 4.684 4.684 0 0 0 0-6.6.688.688 0 0 1 0-.99.7.7 0 0 1 .49-.21.672.672 0 0 1 .5.21 6.06 6.06 0 0 1 0 8.58zm-2.21-1.77a.709.709 0 0 1-.45.16.663.663 0 0 1-.54-.25.708.708 0 0 1 .08-.99 1.865 1.865 0 0 0 0-2.88.708.708 0 0 1-.08-.99.694.694 0 0 1 .54-.25.721.721 0 0 1 .45.17 3.244 3.244 0 0 1 1.17 2.51 3.279 3.279 0 0 1-1.17 2.52zM7.51 15h-.94l-3.28-3.28H.94a.939.939 0 0 1-.94-.94V4.22a.939.939 0 0 1 .94-.94h2.35L6.57 0h.94a.937.937 0 0 1 .93.94v13.13a.935.935 0 0 1-.93.93zM7.04 1.52L3.87 4.69H1.41v5.62h2.46l3.17 3.17V1.52z" fill-rule="evenodd"/></symbol></svg>